<svg width="23" height="45" viewBox="0 0 23 45" xmlns="http://www.w3.org/2000/svg">
<path d="M22.1356 0C22.2674 0.352165 22.5309 0.70433 22.5309 1.0565C22.5748 3.12546 22.5309 5.19444 22.5748 7.2634C22.5748 8.05578 22.2234 8.3199 21.5207 8.3199C20.2471 8.27588 19.0173 8.27588 17.7436 8.3199C15.9429 8.36392 15.372 8.98021 15.372 10.741C15.372 12.1497 15.372 13.6024 15.372 15.1431C17.3923 15.1431 19.2808 15.1431 21.2133 15.1431C22.5309 15.1431 22.7066 15.3192 22.5309 16.6398C22.2674 18.6647 21.9599 20.7337 21.8282 22.7587C21.7403 23.7271 21.3451 23.9912 20.4227 23.9472C18.7977 23.9032 17.1727 23.9472 15.372 23.9472C15.372 24.3874 15.372 24.7396 15.372 25.1358C15.372 31.2547 15.372 37.3735 15.372 43.4924C15.372 44.769 15.2402 44.901 14.0104 44.901C11.6388 44.901 9.31101 44.901 6.93934 44.901C5.70958 44.901 5.57782 44.769 5.57782 43.4924C5.57782 37.3735 5.57782 31.2547 5.57782 25.1358C5.57782 24.7836 5.57782 24.4315 5.57782 23.9032C4.12847 23.9032 2.72303 23.9032 1.3176 23.9032C0.0878397 23.9032 0 23.8152 0 22.6266C0 20.5136 0.0439199 18.3566 0 16.2436C0 15.4072 0.263519 15.0991 1.098 15.1431C2.63519 15.1871 4.21631 15.1431 5.84134 15.1431C5.84134 13.2942 6.01702 11.4894 5.79742 9.77258C5.22646 4.88629 8.95965 1.01247 13.8348 0.176083C14.0983 0.132062 14.3179 0.0440206 14.5814 0C17.0848 0 19.6322 0 22.1356 0Z" transform="translate(0 0.0112305)" fill="white"/>
</svg>
