<svg width="45" height="45" viewBox="0 0 45 45" fill="none" xmlns="http://www.w3.org/2000/svg">
<path d="M44.7543 22.5055C44.7543 25.8951 44.8422 29.3287 44.7543 32.7183C44.4908 39.7176 39.6157 44.6479 32.5885 44.824C25.781 45.0001 18.9295 45.0001 12.1219 44.824C5.27038 44.6479 0.307439 39.6736 0.13176 32.7624C-0.0439199 25.8951 -0.0439199 19.0279 0.13176 12.1607C0.307439 5.24946 5.3143 0.275129 12.2097 0.0990464C18.9734 -0.0330155 25.781 -0.0330155 32.5446 0.0990464C39.5279 0.231108 44.4469 5.20544 44.7104 12.2047C44.8422 15.6383 44.7543 19.0719 44.7543 22.5055ZM41.0211 22.4615C40.9772 22.4615 40.8894 22.4615 40.8455 22.4615C40.8455 19.3801 40.8455 16.3427 40.8455 13.2612C40.8455 12.733 40.7576 12.1607 40.6698 11.6325C40.2745 7.75864 37.9468 5.07338 34.0818 4.36905C32.0615 4.0609 29.9973 3.97286 27.9769 3.97286C22.5309 3.97286 17.1287 3.97286 11.6827 4.23699C7.77381 4.41307 5.0947 6.87822 4.39198 10.708C4.04063 12.5129 3.95279 14.4058 3.9967 16.2986C3.9967 21.8893 3.95279 27.5239 4.2163 33.1145C4.4359 37.5166 7.37853 40.554 11.8144 40.6861C18.9734 40.9062 26.1323 40.9062 33.2913 40.6861C37.3758 40.554 40.3184 37.4285 40.6259 33.2906C40.8894 29.6809 40.8894 26.0712 41.0211 22.4615Z" transform="translate(0.13623)" fill="white"/>
<path d="M0 11.4894C0 5.10639 5.0947 0 11.507 0C17.9632 0 23.0579 5.10639 23.0579 11.5774C23.0579 17.9604 17.9632 23.1108 11.5948 23.1549C5.0947 23.1549 0 18.0485 0 11.4894ZM19.0612 11.5774C19.0173 7.35145 15.6794 3.96186 11.507 3.96186C7.37853 3.96186 3.90887 7.43949 3.95279 11.4894C4.04063 15.7594 7.33461 19.105 11.507 19.105C15.6355 19.105 19.0612 15.6273 19.0612 11.5774Z" transform="translate(11.0278 10.9282)" fill="white"/>
<path d="M2.63519 5.37166C1.14192 5.32764 0 4.1831 0 2.6864C0 1.1897 1.22975 -0.0428769 2.72303 0.00114371C4.17239 0.0451643 5.35822 1.23372 5.35822 2.6864C5.40214 4.1831 4.17239 5.37166 2.63519 5.37166Z" transform="translate(31.8901 7.71338)" fill="white"/>
</svg>
