<svg width="371" height="252" viewBox="0 0 371 252" fill="none" xmlns="http://www.w3.org/2000/svg">
<path fill-rule="evenodd" clip-rule="evenodd" d="M370.743 251.591C370.576 240.817 369.582 229.92 367.756 218.915C365.262 203.86 351.298 193.295 335.916 195.08C328.258 195.886 321.083 200.053 316.333 206.152C311.144 212.875 309.018 221.676 310.439 231.057C311.481 237.954 312.057 244.809 312.188 251.591H370.743ZM5.68701 251.591H0V113.174C12.7271 98.8711 27.5278 86.2686 44.1558 75.7891C109.438 34.6822 179.092 30.3907 251.469 63.0713L252.557 63.5919C252.903 63.7256 253.219 63.8726 253.535 64.0201C253.849 64.1666 254.164 64.313 254.508 64.4463C254 61.6763 253.543 59.025 253.086 56.3751L253.083 56.3541C252.494 52.7452 251.875 49.1495 251.256 45.5538C250.641 41.9737 250.024 38.3941 249.438 34.8013C247.232 21.0489 253.701 8.47174 266.052 2.73492L266.531 2.52349C278.507 -2.76215 292.24 0.47027 299.973 10.2105C303.456 14.5352 305.885 20.0396 306.92 25.3018C312.571 56.2632 317.901 87.795 323.049 118.264L324.132 124.934C325.596 133.438 323.792 141.669 319.268 147.955C314.864 154.188 307.808 158.303 299.537 159.665C268.118 164.668 235.049 169.826 198.272 175.334C184.458 177.428 171.68 170.2 166.508 157.184C161.495 144.528 165.936 130.273 177.201 122.727C180.597 120.371 185.134 118.654 190.52 117.564C195.9 116.478 201.306 115.667 206.623 114.87C207.797 114.694 208.968 114.519 210.132 114.341L211.677 114.125C214.028 113.794 216.437 113.455 218.801 113.231L220.396 112.956C218.326 112.155 216.308 111.473 214.29 110.791C213.391 110.49 212.487 110.184 211.578 109.877C206.711 108.232 201.707 106.541 196.683 105.265C143.893 91.6763 89.3057 106.761 50.6904 145.392C21.7422 174.302 6.10645 212.19 5.68701 251.591Z" fill="#C81739"/>
</svg>
