<svg width="180" height="98" viewBox="0 0 180 98" fill="none" xmlns="http://www.w3.org/2000/svg">
<path d="M8.83405 61.9017C8.83405 63.1391 8.40473 64.195 7.52958 65.0694C6.68746 65.9438 5.64719 66.3728 4.40877 66.3728C3.20338 66.3728 2.1631 65.9438 1.28796 65.0694C0.429318 64.195 0 63.1391 0 61.9017V4.42155C0 3.21717 0.429318 2.17778 1.30447 1.30337C2.1631 0.428957 3.20338 0 4.42528 0C5.6637 0 6.70397 0.428957 7.5461 1.30337C8.42125 2.17778 8.85056 3.20068 8.85056 4.42155V61.9017H8.83405Z" fill="white"/>
<path d="M8.85056 80.2809C8.85056 81.4852 8.42125 82.5246 7.5461 83.399C6.70397 84.2735 5.6637 84.7024 4.42528 84.7024C3.21989 84.7024 2.17962 84.2735 1.30447 83.399C0.429322 82.5246 0 81.5017 0 80.2809V26.5293C0 19.1876 2.59242 12.9347 7.76076 7.75421C12.9786 2.57374 19.2368 0 26.5517 0C33.8996 0 40.1578 2.59024 45.3426 7.75421C50.5275 12.9347 53.1034 19.1876 53.1034 26.5293C53.1034 33.8381 50.511 40.0909 45.3426 45.2549C40.1578 50.4684 33.8996 53.0586 26.5517 53.0586C19.7982 53.0586 13.8868 50.7983 8.83405 46.2778V80.2809H8.85056ZM14.0519 13.9906C10.5843 17.4552 8.83405 21.6458 8.83405 26.5458C8.83405 31.4128 10.5678 35.5704 14.0519 39.0515C17.4865 42.4832 21.6641 44.2155 26.5682 44.2155C31.4723 44.2155 35.6334 42.4997 39.0845 39.0515C42.5521 35.5869 44.3024 31.4128 44.3024 26.5458C44.3024 21.6458 42.5686 17.4717 39.0845 13.9906C35.6499 10.5589 31.4723 8.82661 26.5682 8.82661C21.6641 8.82661 17.503 10.5424 14.0519 13.9906Z" transform="translate(126.897 13.2979)" fill="white"/>
<path d="M87.9198 13.2548C87.1272 13.0403 86.3181 12.8093 85.4925 12.6279C84.8155 12.4794 84.2045 12.4464 83.6926 12.5454C82.0084 12.8423 80.77 14.2612 80.7039 15.977C80.6379 17.7423 81.7442 19.2272 83.4449 19.6891C87.9693 20.9265 92.0478 22.0154 95.9282 23.0383C96.952 23.3023 97.9757 23.1868 98.8013 22.6918C99.6435 22.1969 100.271 21.339 100.535 20.2831L100.75 19.4582C101.707 15.68 102.698 11.7699 103.623 7.90933C103.772 7.2494 103.772 6.49047 103.59 5.81404C103.194 4.29619 101.774 3.2238 100.122 3.2238C100.106 3.2238 100.073 3.2238 100.056 3.2238C98.339 3.2568 96.952 4.37869 96.5061 6.07801C96.275 6.96892 96.0603 7.85983 95.8291 8.75074C95.7466 9.08071 95.664 9.41068 95.5814 9.75714C95.5154 9.69115 95.4659 9.62515 95.3998 9.55916L95.3007 9.44367C88.6133 1.98643 80.3572 -1.06576 70.7305 0.353094C62.8046 1.52448 55.9521 6.2265 51.857 13.2383C47.9932 6.62246 41.4213 1.96993 33.7761 0.501579C26.0484 -0.999769 18.3867 0.897538 12.1781 5.81404C7.53815 9.50967 4.41734 14.3107 2.93123 20.1016C2.45238 21.9659 3.52567 23.8962 5.39156 24.4736C6.31624 24.7706 7.35651 24.6551 8.21515 24.1932C9.15635 23.6817 9.84986 22.7743 10.1636 21.6194C12.723 12.2154 21.6231 6.30899 31.3158 7.57936C36.5337 8.25579 41.1406 10.978 44.2944 15.2346C47.4648 19.4912 48.7197 24.7046 47.8611 29.9016C46.7217 36.6989 42.2139 42.2589 35.7741 44.7501C29.3508 47.2413 22.2836 46.202 16.8841 41.9454C16.2731 41.4669 15.6952 40.9225 15.1338 40.411C14.9356 40.2296 14.7375 40.0481 14.5393 39.8501C14.6054 39.8666 14.6714 39.8831 14.7375 39.8996C15.0842 39.9986 15.4475 40.0976 15.7943 40.1801C16.5869 40.3945 17.396 40.6255 18.2216 40.807C18.8986 40.9555 19.5095 40.9885 20.0214 40.8895C21.7057 40.5925 22.9441 39.1737 23.0101 37.4578C23.0762 35.709 21.9864 34.2077 20.2856 33.7457C15.7778 32.5083 11.6827 31.4194 7.80234 30.3966C6.77859 30.1326 5.75483 30.2481 4.92922 30.743C4.08709 31.238 3.45963 32.0959 3.19543 33.1518L2.98077 33.9767C2.02306 37.7548 1.03233 41.6649 0.10764 45.5255C-0.0409703 46.1855 -0.0409708 46.9444 0.140664 47.6208C0.536958 49.1882 1.99004 50.244 3.6908 50.2275C5.40807 50.1945 6.7951 49.0727 7.24093 47.3733C7.4721 46.4824 7.68676 45.5915 7.91793 44.6841C8.00049 44.3541 8.08305 44.0242 8.16562 43.6942C8.23167 43.7602 8.2812 43.8262 8.34725 43.8922L8.44632 44.0077C15.1338 51.4649 23.3899 54.5171 33 53.0983C40.9259 51.9269 47.7785 47.2248 51.8735 40.2131C55.7374 46.8289 62.3093 51.4814 69.9544 52.9498C71.6882 53.2797 73.4055 53.4447 75.1063 53.4447C81.0342 53.4447 86.7309 51.4484 91.5359 47.6373C96.1759 43.9417 99.2967 39.1407 100.783 33.3498C101.262 31.4854 100.188 29.5551 98.3225 28.9777C97.3978 28.6807 96.3575 28.7962 95.4989 29.2582C94.5577 29.7696 93.8642 30.677 93.5504 31.8319C90.991 41.236 82.0909 47.1424 72.3982 45.8885C67.1804 45.2121 62.5735 42.4898 59.4196 38.2333C56.2493 33.9767 54.9943 28.7632 55.853 23.5662C56.9923 16.7689 61.5002 11.209 67.9399 8.71775C74.3632 6.2265 81.4305 7.26589 86.83 11.5225C87.4409 12.0009 88.0188 12.5454 88.5802 13.0568C88.7784 13.2383 88.9765 13.4198 89.1747 13.6178C89.1086 13.6013 89.0426 13.5848 88.9765 13.5683C88.6298 13.4528 88.2665 13.3538 87.9198 13.2548Z" transform="translate(16.9497 13.1094)" fill="white"/>
</svg>
