<svg width="366" height="709" viewBox="0 0 366 709" fill="none" xmlns="http://www.w3.org/2000/svg">
<path fill-rule="evenodd" clip-rule="evenodd" d="M366 209.168V174.372H234.654C252.459 154.47 261.362 131.185 261.362 104.584C261.362 75.6411 251.16 50.9912 230.625 30.5688C210.285 10.2114 185.656 0 156.869 0C127.951 0 103.322 10.1465 82.9175 30.5688C62.5776 50.9912 52.3755 75.6411 52.3755 104.584C52.3755 133.396 62.5127 158.047 82.9175 178.599C103.322 198.957 127.951 209.168 156.869 209.168H366ZM156.934 174.372C137.634 174.372 121.128 167.478 107.481 153.819C93.8999 140.226 87.1416 123.836 87.1416 104.519C87.1416 85.2021 93.9648 68.7471 107.481 55.2188C121.193 41.4956 137.634 34.666 156.934 34.666C176.104 34.666 192.544 41.5605 206.191 55.2188C219.772 68.812 226.531 85.2021 226.531 104.519C226.531 123.836 219.708 140.291 206.191 153.819C192.479 167.542 176.104 174.372 156.934 174.372ZM256.294 679.342C252.85 675.895 248.691 674.204 243.817 674.204V674.139H17.4155C12.6069 674.139 8.57764 675.83 5.13379 679.277C1.68945 682.594 0 686.691 0 691.569C0 696.382 1.68945 700.48 5.13379 703.862C8.57764 707.309 12.6719 709 17.4155 709H243.817C248.691 709 252.85 707.309 256.294 703.927C259.738 700.48 261.428 696.382 261.428 691.634C261.428 686.756 259.738 682.659 256.294 679.342ZM103.389 297.599L103.377 297.639C102.674 300.213 101.958 302.831 101.374 305.492C100.789 308.159 100.659 310.565 101.049 312.582C102.218 319.215 107.807 324.094 114.565 324.354C121.519 324.614 127.367 320.256 129.187 313.557C134.06 295.736 138.349 279.671 142.378 264.387C143.418 260.354 142.963 256.322 141.014 253.07C139.064 249.753 135.685 247.282 131.526 246.241L128.277 245.396C113.396 241.623 97.9946 237.721 82.7886 234.079C80.189 233.493 77.1997 233.493 74.5356 234.208C68.5571 235.77 64.333 241.363 64.333 247.867V248.127C64.4629 254.891 68.8818 260.354 75.5752 262.111C77.3096 262.561 79.0439 262.995 80.7783 263.429L80.8188 263.439C82.5801 263.879 84.3413 264.32 86.1025 264.777L86.1313 264.785C87.4214 265.107 88.7119 265.43 90.0664 265.753C89.936 265.883 89.8057 265.998 89.6753 266.112C89.5459 266.225 89.4165 266.338 89.2866 266.468L88.832 266.858C59.4595 293.2 47.4375 325.72 53.0259 363.638C57.6396 394.857 76.1602 421.848 103.778 437.978C77.7197 453.197 59.3945 479.083 53.6108 509.197C47.6973 539.635 55.1704 569.814 74.5356 594.269C89.0918 612.545 108.002 624.837 130.811 630.691C138.154 632.577 145.757 628.35 148.032 621C149.201 617.358 148.747 613.26 146.927 609.878C144.913 606.171 141.338 603.439 136.79 602.204C99.749 592.123 76.4849 557.066 81.4888 518.888C84.1528 498.335 94.8755 480.189 111.641 467.767C128.407 455.279 148.941 450.336 169.411 453.718C196.185 458.206 218.084 475.961 227.896 501.327C237.709 526.627 233.615 554.464 216.849 575.732C215.255 577.767 213.477 579.709 211.747 581.597L210.806 582.626C210.091 583.407 209.376 584.188 208.596 584.968L208.791 584.188C209.181 582.822 209.571 581.391 209.896 580.025C210.049 579.459 210.204 578.891 210.36 578.321L210.363 578.311C211.066 575.739 211.781 573.123 212.365 570.464C212.95 567.797 213.08 565.391 212.69 563.375C211.521 556.741 205.932 551.863 199.174 551.603C192.285 551.342 186.372 555.635 184.552 562.334C179.679 580.09 175.39 596.22 171.361 611.504C170.321 615.537 170.776 619.569 172.726 622.821C174.675 626.138 178.054 628.61 182.213 629.65L185.462 630.496C200.343 634.268 215.744 638.17 230.951 641.813C233.55 642.398 236.539 642.398 239.203 641.683C245.377 640.122 249.536 634.398 249.471 627.699C249.341 620.935 244.922 615.472 238.229 613.716C236.247 613.202 234.265 612.708 232.271 612.212L232.2 612.194C230.687 611.817 229.167 611.439 227.636 611.049L223.737 610.073C223.867 609.944 223.996 609.831 224.126 609.717C224.256 609.603 224.387 609.488 224.517 609.358L224.972 608.968C254.344 582.626 266.366 550.107 260.778 512.253C256.164 481.035 237.644 454.043 210.026 437.913C236.084 422.694 254.41 396.808 260.193 366.695C261.493 359.865 262.143 353.101 262.143 346.402C262.143 323.053 254.279 300.614 239.269 281.688C224.712 263.412 205.802 251.119 182.993 245.265C175.649 243.379 168.046 247.607 165.772 254.956C164.603 258.599 165.057 262.696 166.877 266.078C168.891 269.785 172.465 272.517 177.014 273.753C214.055 283.834 237.319 318.89 232.38 357.069C229.716 377.621 218.994 395.768 202.228 408.19C185.462 420.678 164.927 425.621 144.458 422.239C117.685 417.751 95.7852 399.995 85.9727 374.629C76.1602 349.329 80.2539 321.492 97.0195 300.224C98.6074 298.196 100.38 296.261 102.103 294.38L103.063 293.33L103.078 293.313C103.788 292.539 104.498 291.763 105.272 290.988L105.078 291.769C104.706 292.886 104.377 294.047 104.056 295.18L103.843 295.931C103.693 296.485 103.541 297.041 103.389 297.599Z" fill="#E5153D"/>
</svg>
