<?xml version="1.0" encoding="utf-8"?>
<!-- Generator: Adobe Illustrator 22.0.1, SVG Export Plug-In . SVG Version: 6.00 Build 0)  -->
<svg version="1.1" id="Layer_1" xmlns="http://www.w3.org/2000/svg" xmlns:xlink="http://www.w3.org/1999/xlink" x="0px" y="0px"
	 viewBox="0 0 197.1 69" style="enable-background:new 0 0 197.1 69;" xml:space="preserve">
<style type="text/css">
	.st0{fill-rule:evenodd;clip-rule:evenodd;fill:url(#SVGID_1_);}
	.st1{fill:url(#SVGID_2_);}
	.st2{fill:#14A89D;}
	.st3{fill:url(#SVGID_3_);}
	.st4{fill:#14847B;}
	.st5{fill-rule:evenodd;clip-rule:evenodd;fill:url(#SVGID_4_);}
	.st6{fill:url(#SVGID_5_);}
	.st7{fill:url(#SVGID_6_);}
	.st8{fill-rule:evenodd;clip-rule:evenodd;fill:url(#SVGID_7_);}
	.st9{fill:url(#SVGID_8_);}
	.st10{fill:url(#SVGID_9_);}
	.st11{fill:url(#SVGID_10_);}
	.st12{fill:url(#SVGID_11_);}
</style>
<g>
	<g>
		<g>
			
				<radialGradient id="SVGID_1_" cx="-150.7888" cy="2391.9177" r="30.7867" fx="-141.9105" fy="2391.8794" gradientTransform="matrix(1.8293 0 0 0.1655 416.6037 -338.9444)" gradientUnits="userSpaceOnUse">
				<stop  offset="0.1613" style="stop-color:#333333"/>
				<stop  offset="0.3763" style="stop-color:#8F8F8F"/>
				<stop  offset="0.3824" style="stop-color:#919191"/>
				<stop  offset="0.5825" style="stop-color:#C0C0C0"/>
				<stop  offset="0.7593" style="stop-color:#E2E2E2"/>
				<stop  offset="0.9045" style="stop-color:#F7F7F7"/>
				<stop  offset="1" style="stop-color:#FFFFFF"/>
			</radialGradient>
			<path class="st0" d="M197.1,56.9c0,2.8-25.2,5.1-56.3,5.1c-31.1,0-56.3-2.3-56.3-5.1c0-2.8,25.2-5.1,56.3-5.1
				C171.9,51.8,197.1,54.1,197.1,56.9z"/>
			<g>
				<linearGradient id="SVGID_2_" gradientUnits="userSpaceOnUse" x1="121.8911" y1="51.3609" x2="170.3322" y2="17.3255">
					<stop  offset="0" style="stop-color:#333333"/>
					<stop  offset="6.740281e-02" style="stop-color:#2F2F2F"/>
					<stop  offset="0.1298" style="stop-color:#242424"/>
					<stop  offset="0.19" style="stop-color:#111111"/>
					<stop  offset="0.2312" style="stop-color:#000000"/>
					<stop  offset="0.2427" style="stop-color:#010101"/>
					<stop  offset="1" style="stop-color:#444444"/>
				</linearGradient>
				<path class="st1" d="M175.4,55.3c0,1.2-1,2.2-2.2,2.2H135c-1.2,0-2.2-1-2.2-2.2v-53c0-1.2,1-2.2,2.2-2.2h38.2
					c1.2,0,2.2,1,2.2,2.2V55.3z"/>
				<rect x="134.3" y="3.9" class="st2" width="39.5" height="49.7"/>
				<linearGradient id="SVGID_3_" gradientUnits="userSpaceOnUse" x1="155.1361" y1="53.0469" x2="152.9004" y2="58.1515">
					<stop  offset="0.2312" style="stop-color:#000000"/>
					<stop  offset="1" style="stop-color:#1C1C1C"/>
				</linearGradient>
				<path class="st3" d="M156.8,55.4c0,0.4-0.3,0.7-0.7,0.7h-3.9c-0.4,0-0.7-0.3-0.7-0.7l0,0c0-0.4,0.3-0.7,0.7-0.7h3.9
					C156.4,54.7,156.8,55,156.8,55.4L156.8,55.4z"/>
				<g>
					<path class="st4" d="M154,36.7c-2-2.8-3.7-5.6-4.6-9c-0.4-1.4-0.5-2.8,0.2-4.2c1-2,3.1-3.1,5.4-2.7c2,0.3,3.7,2,4.1,4.2
						c0.2,1.3-0.1,2.5-0.6,3.6c-0.9,2.4-2.1,4.6-3.4,6.8c-0.3,0.4-0.6,0.9-0.8,1.3C154.1,36.7,154.1,36.7,154,36.7z M154.1,28.2
						c1.3,0,2.3-1.1,2.3-2.3c0-1.3-1.1-2.3-2.3-2.3c-1.3,0-2.3,1.1-2.3,2.3C151.8,27.2,152.8,28.2,154.1,28.2z"/>
				</g>
			</g>
		</g>
		<g>
			
				<radialGradient id="SVGID_4_" cx="-184.3946" cy="2392.5374" r="17.6463" fx="-179.3057" fy="2392.5154" gradientTransform="matrix(1.8094 0 0 0.1655 365.568 -338.9444)" gradientUnits="userSpaceOnUse">
				<stop  offset="0.1613" style="stop-color:#333333"/>
				<stop  offset="0.3763" style="stop-color:#8F8F8F"/>
				<stop  offset="0.3824" style="stop-color:#919191"/>
				<stop  offset="0.5825" style="stop-color:#C0C0C0"/>
				<stop  offset="0.7593" style="stop-color:#E2E2E2"/>
				<stop  offset="0.9045" style="stop-color:#F7F7F7"/>
				<stop  offset="1" style="stop-color:#FFFFFF"/>
			</radialGradient>
			<path class="st5" d="M63.8,57c0,1.6-14.3,2.9-31.9,2.9C14.3,59.9,0,58.6,0,57s14.3-2.9,31.9-2.9C49.6,54.1,63.8,55.4,63.8,57z"/>
			<g>
				<linearGradient id="SVGID_5_" gradientUnits="userSpaceOnUse" x1="18.4726" y1="51.1509" x2="49.0096" y2="29.6952">
					<stop  offset="0" style="stop-color:#333333"/>
					<stop  offset="6.740281e-02" style="stop-color:#2F2F2F"/>
					<stop  offset="0.1298" style="stop-color:#242424"/>
					<stop  offset="0.19" style="stop-color:#111111"/>
					<stop  offset="0.2312" style="stop-color:#000000"/>
					<stop  offset="0.2427" style="stop-color:#010101"/>
					<stop  offset="1" style="stop-color:#444444"/>
				</linearGradient>
				<path class="st6" d="M50.2,56.4c0,0.7-0.5,1.2-1.2,1.2H28.5c-0.7,0-1.2-0.5-1.2-1.2V17.3c0-0.7,0.5-1.2,1.2-1.2h20.6
					c0.7,0,1.2,0.5,1.2,1.2V56.4z"/>
				<rect x="28.1" y="19.3" class="st2" width="21.3" height="35.1"/>
				<linearGradient id="SVGID_6_" gradientUnits="userSpaceOnUse" x1="39.5212" y1="54.3816" x2="37.9157" y2="58.0473">
					<stop  offset="0.2312" style="stop-color:#000000"/>
					<stop  offset="1" style="stop-color:#1C1C1C"/>
				</linearGradient>
				<path class="st7" d="M40.7,56.1c0,0.3-0.2,0.5-0.5,0.5h-2.8c-0.3,0-0.5-0.2-0.5-0.5l0,0c0-0.3,0.2-0.5,0.5-0.5h2.8
					C40.5,55.6,40.7,55.8,40.7,56.1L40.7,56.1z"/>
				<g>
					<path class="st4" d="M38.7,44.8c-2-2.8-3.7-5.6-4.6-9c-0.4-1.4-0.5-2.8,0.2-4.2c1-2,3.1-3.1,5.4-2.7c2,0.3,3.7,2,4.1,4.2
						c0.2,1.3-0.1,2.5-0.6,3.6c-0.9,2.4-2.1,4.6-3.4,6.8c-0.3,0.4-0.6,0.9-0.8,1.3C38.8,44.8,38.8,44.8,38.7,44.8z M38.8,36.3
						c1.3,0,2.3-1.1,2.3-2.3c0-1.3-1.1-2.3-2.3-2.3c-1.3,0-2.3,1.1-2.3,2.3C36.5,35.3,37.5,36.3,38.8,36.3z"/>
				</g>
			</g>
		</g>
	</g>
	<g>
		
			<radialGradient id="SVGID_7_" cx="-245.9103" cy="8342.6641" r="43.5365" fx="-233.3551" fy="8342.6104" gradientTransform="matrix(1.9653 0 0 7.900000e-02 569.1157 -593.4962)" gradientUnits="userSpaceOnUse">
			<stop  offset="0.5161" style="stop-color:#333333"/>
			<stop  offset="0.6398" style="stop-color:#8F8F8F"/>
			<stop  offset="0.6433" style="stop-color:#919191"/>
			<stop  offset="0.7589" style="stop-color:#C0C0C0"/>
			<stop  offset="0.861" style="stop-color:#E2E2E2"/>
			<stop  offset="0.9448" style="stop-color:#F7F7F7"/>
			<stop  offset="1" style="stop-color:#FFFFFF"/>
		</radialGradient>
		<path class="st8" d="M171.4,65.6c0,1.9-38.3,3.4-85.6,3.4S0.3,67.5,0.3,65.6c0-1.9,38.3-3.4,85.6-3.4S171.4,63.7,171.4,65.6z"/>
		<g>
			<linearGradient id="SVGID_8_" gradientUnits="userSpaceOnUse" x1="41.0599" y1="74.2595" x2="116.2071" y2="21.4601">
				<stop  offset="0" style="stop-color:#484848"/>
				<stop  offset="6.198393e-02" style="stop-color:#444444"/>
				<stop  offset="0.1194" style="stop-color:#393939"/>
				<stop  offset="0.1749" style="stop-color:#262626"/>
				<stop  offset="0.2291" style="stop-color:#0C0C0C"/>
				<stop  offset="0.2312" style="stop-color:#0B0B0B"/>
				<stop  offset="0.3195" style="stop-color:#141414"/>
				<stop  offset="1" style="stop-color:#575757"/>
			</linearGradient>
			<path class="st9" d="M135.5,64.4V13.8c0-0.9-0.8-1.7-1.7-1.7h-84c-0.9,0-1.7,0.8-1.7,1.7v50.6H135.5z"/>
			<rect x="50.7" y="14.8" class="st2" width="82" height="44.4"/>
			<g>
				<linearGradient id="SVGID_9_" gradientUnits="userSpaceOnUse" x1="38.5674" y1="65.1807" x2="145" y2="65.1807">
					<stop  offset="0" style="stop-color:#2C2C2C"/>
					<stop  offset="8.986933e-03" style="stop-color:#4B4B4B"/>
					<stop  offset="1.803338e-02" style="stop-color:#636363"/>
					<stop  offset="2.358120e-02" style="stop-color:#6C6C6C"/>
					<stop  offset="2.629690e-02" style="stop-color:#767676"/>
					<stop  offset="3.519832e-02" style="stop-color:#919191"/>
					<stop  offset="4.426634e-02" style="stop-color:#A4A4A4"/>
					<stop  offset="5.352281e-02" style="stop-color:#AFAFAF"/>
					<stop  offset="6.324490e-02" style="stop-color:#B3B3B3"/>
					<stop  offset="6.839642e-02" style="stop-color:#B2B2B2"/>
					<stop  offset="0.1304" style="stop-color:#A5A5A5"/>
					<stop  offset="0.8409" style="stop-color:#A5A5A5"/>
					<stop  offset="0.8446" style="stop-color:#A6A6A6"/>
					<stop  offset="0.9269" style="stop-color:#B4B4B4"/>
					<stop  offset="0.9374" style="stop-color:#AEAEAE"/>
					<stop  offset="0.9512" style="stop-color:#9E9E9E"/>
					<stop  offset="0.9668" style="stop-color:#838383"/>
					<stop  offset="0.9775" style="stop-color:#6C6C6C"/>
					<stop  offset="1" style="stop-color:#2C2C2C"/>
				</linearGradient>
				<path class="st10" d="M38.6,63.4V65c0,0.4,5.8,2,6.5,2h93.3c0.8,0,6.6-1.5,6.6-2v-1.6H38.6z"/>
				<linearGradient id="SVGID_10_" gradientUnits="userSpaceOnUse" x1="38.5674" y1="64.1095" x2="145" y2="64.1095">
					<stop  offset="0" style="stop-color:#49494A"/>
					<stop  offset="2.641437e-03" style="stop-color:#565657"/>
					<stop  offset="1.182234e-02" style="stop-color:#7D7D7E"/>
					<stop  offset="1.912085e-02" style="stop-color:#969696"/>
					<stop  offset="2.358120e-02" style="stop-color:#9F9F9F"/>
					<stop  offset="3.111128e-02" style="stop-color:#C1C1C1"/>
					<stop  offset="3.885101e-02" style="stop-color:#DCDCDC"/>
					<stop  offset="4.673983e-02" style="stop-color:#EFEFEF"/>
					<stop  offset="5.479088e-02" style="stop-color:#FAFAFA"/>
					<stop  offset="6.324490e-02" style="stop-color:#FEFEFE"/>
					<stop  offset="8.193522e-02" style="stop-color:#F8F8F8"/>
					<stop  offset="0.1304" style="stop-color:#EBEBEB"/>
					<stop  offset="0.8409" style="stop-color:#EBEBEB"/>
					<stop  offset="0.862" style="stop-color:#F1F1F1"/>
					<stop  offset="0.9269" style="stop-color:#FFFFFF"/>
					<stop  offset="0.9357" style="stop-color:#F9F9F9"/>
					<stop  offset="0.9473" style="stop-color:#E9E9E9"/>
					<stop  offset="0.9603" style="stop-color:#CECECE"/>
					<stop  offset="0.9744" style="stop-color:#A8A8A8"/>
					<stop  offset="0.9775" style="stop-color:#9F9F9F"/>
					<stop  offset="1" style="stop-color:#49494A"/>
				</linearGradient>
				<path class="st11" d="M145,64.7c0,0.4-0.7,0.8-1.6,0.8H40.2c-0.9,0-1.6-0.4-1.6-0.8v-1.2c0-0.4,0.7-0.8,1.6-0.8h103.3
					c0.9,0,1.6,0.4,1.6,0.8V64.7z"/>
			</g>
			<linearGradient id="SVGID_11_" gradientUnits="userSpaceOnUse" x1="79.6939" y1="63.3545" x2="138.4877" y2="63.3545">
				<stop  offset="0" style="stop-color:#2C2C2C"/>
				<stop  offset="5.816171e-02" style="stop-color:#4B4B4B"/>
				<stop  offset="0.1167" style="stop-color:#636363"/>
				<stop  offset="0.1526" style="stop-color:#6C6C6C"/>
				<stop  offset="0.1591" style="stop-color:#747474"/>
				<stop  offset="0.1855" style="stop-color:#8F8F8F"/>
				<stop  offset="0.2124" style="stop-color:#A2A2A2"/>
				<stop  offset="0.2399" style="stop-color:#ADADAD"/>
				<stop  offset="0.2688" style="stop-color:#B1B1B1"/>
				<stop  offset="0.3669" style="stop-color:#A5A5A5"/>
				<stop  offset="0.685" style="stop-color:#A5A5A5"/>
				<stop  offset="0.6889" style="stop-color:#A6A6A6"/>
				<stop  offset="0.7764" style="stop-color:#B4B4B4"/>
				<stop  offset="0.797" style="stop-color:#AEAEAE"/>
				<stop  offset="0.824" style="stop-color:#9E9E9E"/>
				<stop  offset="0.8544" style="stop-color:#838383"/>
				<stop  offset="0.8754" style="stop-color:#6C6C6C"/>
				<stop  offset="1" style="stop-color:#2C2C2C"/>
			</linearGradient>
			<path class="st12" d="M102.4,63H81.1c-0.2,0-0.4-0.1-0.5-0.3v0.6c0,0.4,0.3,0.6,0.6,0.6h21.1c0.3,0,0.6-0.3,0.6-0.6v-0.6
				C102.8,62.9,102.6,63,102.4,63z"/>
			<g>
				<path class="st4" d="M91.7,44.9c-2-2.8-3.7-5.6-4.6-9c-0.4-1.4-0.5-2.8,0.2-4.2c1-2,3.1-3.1,5.4-2.7c2,0.3,3.7,2,4.1,4.2
					c0.2,1.3-0.1,2.5-0.6,3.6c-0.9,2.4-2.1,4.6-3.4,6.8c-0.3,0.4-0.6,0.9-0.8,1.3C91.8,44.9,91.7,44.9,91.7,44.9z M91.8,36.4
					c1.3,0,2.3-1.1,2.3-2.3c0-1.3-1.1-2.3-2.3-2.3c-1.3,0-2.3,1.1-2.3,2.3C89.4,35.4,90.5,36.4,91.8,36.4z"/>
			</g>
		</g>
	</g>
</g>
</svg>
