<svg width="56" height="45" viewBox="0 0 56 45" fill="none" xmlns="http://www.w3.org/2000/svg">
<path d="M55.1194 5.28248C53.0991 6.16289 50.9031 6.77918 48.6193 7.08732C50.947 5.67866 52.7478 3.47763 53.5822 0.792371C51.3862 2.11299 48.9706 3.03742 46.3794 3.56567C44.3151 1.36464 41.3725 0 38.1224 0C31.8858 0 26.7911 5.06237 26.7911 11.3573C26.7911 12.2377 26.879 13.1181 27.0986 13.9545C17.6997 13.4703 9.35493 8.98021 3.77711 2.11299C2.81087 3.78577 2.23992 5.72268 2.23992 7.83567C2.23992 11.7535 4.21631 15.2311 7.2907 17.2561C5.44606 17.2121 3.68927 16.6838 2.15208 15.8474C2.15208 15.8914 2.15208 15.9355 2.15208 15.9795C2.15208 21.4821 6.06094 26.0602 11.2435 27.1167C10.2772 27.3808 9.31101 27.5129 8.25693 27.5129C7.5103 27.5129 6.80758 27.4249 6.14878 27.2928C7.59813 31.7829 11.7705 35.0844 16.7335 35.1725C12.8685 38.2099 7.99342 40.0148 2.67911 40.0148C1.7568 40.0148 0.878397 39.9707 0 39.8387C5.00686 43.0522 10.936 44.9451 17.3483 44.9451C38.1664 44.9451 49.5416 27.645 49.5416 12.6779C49.5416 12.1937 49.5416 11.7095 49.4977 11.2253C51.6937 9.55248 53.6262 7.52753 55.1194 5.28248Z" transform="translate(0.880371 0.0551758)" fill="white"/>
</svg>
